<svg xmlns="http://www.w3.org/2000/svg" width="640" height="360" viewBox="0 0 640 360" role="img" aria-label="Engineering Mathematics">
<defs>
<linearGradient id="bg" x1="0" y1="0" x2="1" y2="1"><stop offset="0" stop-color="#0B1626"/><stop offset="1" stop-color="#13233B"/></linearGradient>
<radialGradient id="gA" cx="50%" cy="50%" r="50%"><stop offset="0" stop-color="#38BDF8" stop-opacity="0.55"/><stop offset="1" stop-color="#38BDF8" stop-opacity="0"/></radialGradient>
<radialGradient id="gB" cx="50%" cy="50%" r="50%"><stop offset="0" stop-color="#2563EB" stop-opacity="0.5"/><stop offset="1" stop-color="#2563EB" stop-opacity="0"/></radialGradient>
<linearGradient id="acc" x1="0" y1="0" x2="1" y2="0"><stop offset="0" stop-color="#38BDF8"/><stop offset="1" stop-color="#2563EB"/></linearGradient>
<pattern id="grid" width="34" height="34" patternUnits="userSpaceOnUse"><path d="M34 0H0V34" fill="none" stroke="#ffffff" stroke-opacity="0.05" stroke-width="1"/></pattern>
<linearGradient id="fade" x1="0" y1="0" x2="0" y2="1"><stop offset="0" stop-color="#0B1626" stop-opacity="0"/><stop offset="1" stop-color="#0B1626" stop-opacity="0.85"/></linearGradient>
</defs>
<rect width="640" height="360" fill="url(#bg)"/>
<rect width="640" height="360" fill="url(#grid)"/>
<circle cx="500" cy="70" r="240" fill="url(#gA)"/>
<circle cx="120" cy="330" r="220" fill="url(#gB)"/>
<!-- accent corner bar -->
<rect x="0" y="0" width="640" height="5" fill="url(#acc)"/>
<g>
<line x1="360" y1="135" x2="580" y2="135" stroke="#38BDF8" stroke-opacity="0.4" stroke-width="2"/>
<line x1="380" y1="60" x2="380" y2="210" stroke="#38BDF8" stroke-opacity="0.4" stroke-width="2"/>
<path d="M380 135 Q 410 70 440 135 T 500 135 T 560 135" fill="none" stroke="#22D3EE" stroke-width="3" stroke-linecap="round"/>
<path d="M388 135 Q 418 200 448 135 T 508 135" fill="none" stroke="#2563EB" stroke-width="2.4" stroke-opacity="0.7" stroke-dasharray="5 5"/>
<text x="486" y="110" font-family="Georgia, serif" font-size="58" fill="#7FD7EE" font-style="italic">&#8747;</text>
<text x="524" y="118" font-family="monospace" font-size="15" fill="#9FB3C8">f(x)dx</text></g>
<rect x="0" y="180" width="640" height="180" fill="url(#fade)"/>
<!-- category pill -->
<g transform="translate(34,248)">
<rect x="0" y="0" rx="13" ry="13" width="112" height="26" fill="#38BDF8" fill-opacity="0.18" stroke="#38BDF8" stroke-opacity="0.5"/>
<text x="13" y="18" font-family="Inter, Arial, sans-serif" font-size="13" font-weight="600" fill="#38BDF8">Mathematics</text>
</g>
<text x="34" y="316" font-family="Poppins, Arial, sans-serif" font-size="27" font-weight="800" fill="#FFFFFF">Engineering Mathematics</text>
<text x="34" y="342" font-family="Inter, Arial, sans-serif" font-size="13" fill="#9FB3C8">Foundation Program · Loop &amp; Logic</text>
</svg>