<svg xmlns="http://www.w3.org/2000/svg" width="640" height="360" viewBox="0 0 640 360" role="img" aria-label="Object-Oriented Programming">
<defs>
<linearGradient id="bg" x1="0" y1="0" x2="1" y2="1"><stop offset="0" stop-color="#0B1626"/><stop offset="1" stop-color="#13233B"/></linearGradient>
<radialGradient id="gA" cx="50%" cy="50%" r="50%"><stop offset="0" stop-color="#10B981" stop-opacity="0.55"/><stop offset="1" stop-color="#10B981" stop-opacity="0"/></radialGradient>
<radialGradient id="gB" cx="50%" cy="50%" r="50%"><stop offset="0" stop-color="#22D3EE" stop-opacity="0.5"/><stop offset="1" stop-color="#22D3EE" stop-opacity="0"/></radialGradient>
<linearGradient id="acc" x1="0" y1="0" x2="1" y2="0"><stop offset="0" stop-color="#10B981"/><stop offset="1" stop-color="#22D3EE"/></linearGradient>
<pattern id="grid" width="34" height="34" patternUnits="userSpaceOnUse"><path d="M34 0H0V34" fill="none" stroke="#ffffff" stroke-opacity="0.05" stroke-width="1"/></pattern>
<linearGradient id="fade" x1="0" y1="0" x2="0" y2="1"><stop offset="0" stop-color="#0B1626" stop-opacity="0"/><stop offset="1" stop-color="#0B1626" stop-opacity="0.85"/></linearGradient>
</defs>
<rect width="640" height="360" fill="url(#bg)"/>
<rect width="640" height="360" fill="url(#grid)"/>
<circle cx="500" cy="70" r="240" fill="url(#gA)"/>
<circle cx="120" cy="330" r="220" fill="url(#gB)"/>
<!-- accent corner bar -->
<rect x="0" y="0" width="640" height="5" fill="url(#acc)"/>
<g stroke="#10B981" stroke-width="2" stroke-opacity="0.6">
<line x1="470" y1="120" x2="420" y2="150"/><line x1="470" y1="120" x2="520" y2="150"/></g>
<g>
<rect x="412" y="46" width="120" height="74" rx="8" fill="#0E1C30" stroke="#10B981" stroke-opacity="0.6"/>
<rect x="412" y="46" width="120" height="24" rx="8" fill="#10B981" fill-opacity="0.22"/><rect x="412" y="58" width="120" height="12" fill="#10B981" fill-opacity="0.22"/>
<text x="472" y="62" text-anchor="middle" font-family="monospace" font-size="13" font-weight="700" fill="#A7F3D0">Animal</text>
<line x1="422" y1="84" x2="502" y2="84" stroke="#ffffff" stroke-opacity="0.2"/>
<line x1="422" y1="98" x2="482" y2="98" stroke="#ffffff" stroke-opacity="0.2"/>
<line x1="422" y1="110" x2="492" y2="110" stroke="#ffffff" stroke-opacity="0.2"/></g><g>
<rect x="352" y="150" width="120" height="74" rx="8" fill="#0E1C30" stroke="#22D3EE" stroke-opacity="0.6"/>
<rect x="352" y="150" width="120" height="24" rx="8" fill="#22D3EE" fill-opacity="0.22"/><rect x="352" y="162" width="120" height="12" fill="#22D3EE" fill-opacity="0.22"/>
<text x="412" y="166" text-anchor="middle" font-family="monospace" font-size="13" font-weight="700" fill="#A7F3D0">Dog</text>
<line x1="362" y1="188" x2="442" y2="188" stroke="#ffffff" stroke-opacity="0.2"/>
<line x1="362" y1="202" x2="422" y2="202" stroke="#ffffff" stroke-opacity="0.2"/>
<line x1="362" y1="214" x2="432" y2="214" stroke="#ffffff" stroke-opacity="0.2"/></g><g>
<rect x="472" y="150" width="120" height="74" rx="8" fill="#0E1C30" stroke="#22D3EE" stroke-opacity="0.6"/>
<rect x="472" y="150" width="120" height="24" rx="8" fill="#22D3EE" fill-opacity="0.22"/><rect x="472" y="162" width="120" height="12" fill="#22D3EE" fill-opacity="0.22"/>
<text x="532" y="166" text-anchor="middle" font-family="monospace" font-size="13" font-weight="700" fill="#A7F3D0">Cat</text>
<line x1="482" y1="188" x2="562" y2="188" stroke="#ffffff" stroke-opacity="0.2"/>
<line x1="482" y1="202" x2="542" y2="202" stroke="#ffffff" stroke-opacity="0.2"/>
<line x1="482" y1="214" x2="552" y2="214" stroke="#ffffff" stroke-opacity="0.2"/></g>
<rect x="0" y="180" width="640" height="180" fill="url(#fade)"/>
<!-- category pill -->
<g transform="translate(34,248)">
<rect x="0" y="0" rx="13" ry="13" width="112" height="26" fill="#10B981" fill-opacity="0.18" stroke="#10B981" stroke-opacity="0.5"/>
<text x="13" y="18" font-family="Inter, Arial, sans-serif" font-size="13" font-weight="600" fill="#10B981">Programming</text>
</g>
<text x="34" y="316" font-family="Poppins, Arial, sans-serif" font-size="27" font-weight="800" fill="#FFFFFF">Object-Oriented Programming</text>
<text x="34" y="342" font-family="Inter, Arial, sans-serif" font-size="13" fill="#9FB3C8">Foundation Program · Loop &amp; Logic</text>
</svg>