<svg xmlns="http://www.w3.org/2000/svg" width="640" height="360" viewBox="0 0 640 360" role="img" aria-label="Data Structures">
<defs>
<linearGradient id="bg" x1="0" y1="0" x2="1" y2="1"><stop offset="0" stop-color="#0B1626"/><stop offset="1" stop-color="#13233B"/></linearGradient>
<radialGradient id="gA" cx="50%" cy="50%" r="50%"><stop offset="0" stop-color="#EC4899" stop-opacity="0.55"/><stop offset="1" stop-color="#EC4899" stop-opacity="0"/></radialGradient>
<radialGradient id="gB" cx="50%" cy="50%" r="50%"><stop offset="0" stop-color="#8B5CF6" stop-opacity="0.5"/><stop offset="1" stop-color="#8B5CF6" stop-opacity="0"/></radialGradient>
<linearGradient id="acc" x1="0" y1="0" x2="1" y2="0"><stop offset="0" stop-color="#EC4899"/><stop offset="1" stop-color="#8B5CF6"/></linearGradient>
<pattern id="grid" width="34" height="34" patternUnits="userSpaceOnUse"><path d="M34 0H0V34" fill="none" stroke="#ffffff" stroke-opacity="0.05" stroke-width="1"/></pattern>
<linearGradient id="fade" x1="0" y1="0" x2="0" y2="1"><stop offset="0" stop-color="#0B1626" stop-opacity="0"/><stop offset="1" stop-color="#0B1626" stop-opacity="0.85"/></linearGradient>
</defs>
<rect width="640" height="360" fill="url(#bg)"/>
<rect width="640" height="360" fill="url(#grid)"/>
<circle cx="500" cy="70" r="240" fill="url(#gA)"/>
<circle cx="120" cy="330" r="220" fill="url(#gB)"/>
<!-- accent corner bar -->
<rect x="0" y="0" width="640" height="5" fill="url(#acc)"/>
<g stroke="#EC4899" stroke-width="2.4" fill="#15233B">
<line x1="480" y1="92" x2="420" y2="150" stroke-opacity="0.7"/><line x1="480" y1="92" x2="540" y2="150" stroke-opacity="0.7"/>
<line x1="420" y1="150" x2="384" y2="206" stroke-opacity="0.7"/><line x1="420" y1="150" x2="456" y2="206" stroke-opacity="0.7"/>
<line x1="540" y1="150" x2="576" y2="206" stroke-opacity="0.7"/>
<circle cx="480" cy="92" r="22" stroke="#F472B6"/><circle cx="420" cy="150" r="20"/><circle cx="540" cy="150" r="20"/>
<circle cx="384" cy="206" r="17"/><circle cx="456" cy="206" r="17"/><circle cx="576" cy="206" r="17"/></g>
<g font-family="monospace" font-size="13" fill="#FBCFE8" text-anchor="middle">
<text x="480" y="97">8</text><text x="420" y="155">3</text><text x="540" y="155">10</text><text x="384" y="211">1</text><text x="456" y="211">6</text><text x="576" y="211">14</text></g>
<rect x="0" y="180" width="640" height="180" fill="url(#fade)"/>
<!-- brand -->
<g transform="translate(26,20) scale(0.62)"><g fill="none" stroke-linecap="round" stroke-linejoin="round">
    <path d="M30 31 C 22 16, 6 18, 6 31 C 6 44, 22 46, 30 31" stroke="#19B5C9" stroke-width="6"/>
    <path d="M28 31 C 36 16, 52 18, 52 31 C 52 44, 36 46, 28 31" stroke="#F5821F" stroke-width="6"/>
    <path d="M23 25 L20 12" stroke="#19B5C9" stroke-width="2.6"/><path d="M29 23 L29 7" stroke="#19B5C9" stroke-width="2.6"/>
    <path d="M35 25 L38 12" stroke="#F5821F" stroke-width="2.6"/></g>
    <circle cx="20" cy="10" r="3.2" fill="#19B5C9"/><circle cx="29" cy="5.5" r="3.2" fill="#19B5C9"/><circle cx="38" cy="10" r="3.2" fill="#F5821F"/></g>
<text x="74" y="46" font-family="Inter, Arial, sans-serif" font-size="13" font-weight="700" letter-spacing="2" fill="#9FB3C8">LOOP &amp; LOGIC</text>
<!-- category pill -->
<g transform="translate(34,248)">
<rect x="0" y="0" rx="13" ry="13" width="163" height="26" fill="#EC4899" fill-opacity="0.18" stroke="#EC4899" stroke-opacity="0.5"/>
<text x="13" y="18" font-family="Inter, Arial, sans-serif" font-size="13" font-weight="600" fill="#EC4899">Data &amp; Algorithms</text>
</g>
<text x="34" y="316" font-family="Poppins, Arial, sans-serif" font-size="34" font-weight="800" fill="#FFFFFF">Data Structures</text>
<text x="34" y="342" font-family="Inter, Arial, sans-serif" font-size="13" fill="#9FB3C8">Foundation Program · Loop &amp; Logic</text>
</svg>