<svg xmlns="http://www.w3.org/2000/svg" width="640" height="360" viewBox="0 0 640 360" role="img" aria-label="Algorithms">
<defs>
<linearGradient id="bg" x1="0" y1="0" x2="1" y2="1"><stop offset="0" stop-color="#0B1626"/><stop offset="1" stop-color="#13233B"/></linearGradient>
<radialGradient id="gA" cx="50%" cy="50%" r="50%"><stop offset="0" stop-color="#F59E0B" stop-opacity="0.55"/><stop offset="1" stop-color="#F59E0B" stop-opacity="0"/></radialGradient>
<radialGradient id="gB" cx="50%" cy="50%" r="50%"><stop offset="0" stop-color="#A855F7" stop-opacity="0.5"/><stop offset="1" stop-color="#A855F7" stop-opacity="0"/></radialGradient>
<linearGradient id="acc" x1="0" y1="0" x2="1" y2="0"><stop offset="0" stop-color="#F59E0B"/><stop offset="1" stop-color="#A855F7"/></linearGradient>
<pattern id="grid" width="34" height="34" patternUnits="userSpaceOnUse"><path d="M34 0H0V34" fill="none" stroke="#ffffff" stroke-opacity="0.05" stroke-width="1"/></pattern>
<linearGradient id="fade" x1="0" y1="0" x2="0" y2="1"><stop offset="0" stop-color="#0B1626" stop-opacity="0"/><stop offset="1" stop-color="#0B1626" stop-opacity="0.85"/></linearGradient>
</defs>
<rect width="640" height="360" fill="url(#bg)"/>
<rect width="640" height="360" fill="url(#grid)"/>
<circle cx="500" cy="70" r="240" fill="url(#gA)"/>
<circle cx="120" cy="330" r="220" fill="url(#gB)"/>
<!-- accent corner bar -->
<rect x="0" y="0" width="640" height="5" fill="url(#acc)"/>
<g><rect x="360" y="160" width="18" height="40" rx="4" fill="url(#acc)" fill-opacity="0.55"/><rect x="386" y="125" width="18" height="75" rx="4" fill="url(#acc)" fill-opacity="0.6200000000000001"/><rect x="412" y="145" width="18" height="55" rx="4" fill="url(#acc)" fill-opacity="0.6900000000000001"/><rect x="438" y="90" width="18" height="110" rx="4" fill="url(#acc)" fill-opacity="0.76"/><rect x="464" y="110" width="18" height="90" rx="4" fill="url(#acc)" fill-opacity="0.8300000000000001"/><rect x="490" y="60" width="18" height="140" rx="4" fill="url(#acc)" fill-opacity="0.9000000000000001"/><rect x="516" y="80" width="18" height="120" rx="4" fill="url(#acc)" fill-opacity="0.9700000000000001"/>
<line x1="352" y1="202" x2="556" y2="202" stroke="#F59E0B" stroke-opacity="0.4" stroke-width="2"/>
<path d="M360 96 L400 116 L440 84 L480 120 L520 70" fill="none" stroke="#FBBF24" stroke-width="2.6" stroke-linecap="round" stroke-linejoin="round"/>
<circle cx="360" cy="96" r="4" fill="#FBBF24"/><circle cx="440" cy="84" r="4" fill="#FBBF24"/><circle cx="520" cy="70" r="4" fill="#FBBF24"/></g>
<rect x="0" y="180" width="640" height="180" fill="url(#fade)"/>
<!-- category pill -->
<g transform="translate(34,248)">
<rect x="0" y="0" rx="13" ry="13" width="163" height="26" fill="#F59E0B" fill-opacity="0.18" stroke="#F59E0B" stroke-opacity="0.5"/>
<text x="13" y="18" font-family="Inter, Arial, sans-serif" font-size="13" font-weight="600" fill="#F59E0B">Data &amp; Algorithms</text>
</g>
<text x="34" y="316" font-family="Poppins, Arial, sans-serif" font-size="42" font-weight="800" fill="#FFFFFF">Algorithms</text>
<text x="34" y="342" font-family="Inter, Arial, sans-serif" font-size="13" fill="#9FB3C8">Foundation Program · Loop &amp; Logic</text>
</svg>