<svg xmlns="http://www.w3.org/2000/svg" width="640" height="360" viewBox="0 0 640 360" role="img" aria-label="C Programming">
<defs>
<linearGradient id="bg" x1="0" y1="0" x2="1" y2="1"><stop offset="0" stop-color="#0B1626"/><stop offset="1" stop-color="#13233B"/></linearGradient>
<radialGradient id="gA" cx="50%" cy="50%" r="50%"><stop offset="0" stop-color="#3B82F6" stop-opacity="0.55"/><stop offset="1" stop-color="#3B82F6" stop-opacity="0"/></radialGradient>
<radialGradient id="gB" cx="50%" cy="50%" r="50%"><stop offset="0" stop-color="#22D3EE" stop-opacity="0.5"/><stop offset="1" stop-color="#22D3EE" stop-opacity="0"/></radialGradient>
<linearGradient id="acc" x1="0" y1="0" x2="1" y2="0"><stop offset="0" stop-color="#3B82F6"/><stop offset="1" stop-color="#22D3EE"/></linearGradient>
<pattern id="grid" width="34" height="34" patternUnits="userSpaceOnUse"><path d="M34 0H0V34" fill="none" stroke="#ffffff" stroke-opacity="0.05" stroke-width="1"/></pattern>
<linearGradient id="fade" x1="0" y1="0" x2="0" y2="1"><stop offset="0" stop-color="#0B1626" stop-opacity="0"/><stop offset="1" stop-color="#0B1626" stop-opacity="0.85"/></linearGradient>
</defs>
<rect width="640" height="360" fill="url(#bg)"/>
<rect width="640" height="360" fill="url(#grid)"/>
<circle cx="500" cy="70" r="240" fill="url(#gA)"/>
<circle cx="120" cy="330" r="220" fill="url(#gB)"/>
<!-- accent corner bar -->
<rect x="0" y="0" width="640" height="5" fill="url(#acc)"/>
<g>
<rect x="350" y="50" width="262" height="170" rx="14" fill="#0E1C30" stroke="#ffffff" stroke-opacity="0.10"/>
<rect x="350" y="50" width="262" height="30" rx="14" fill="#16273F"/>
<rect x="350" y="66" width="262" height="14" fill="#16273F"/>
<circle cx="368" cy="65" r="4.5" fill="#ff5f56"/><circle cx="384" cy="65" r="4.5" fill="#ffbd2e"/><circle cx="400" cy="65" r="4.5" fill="#27c93f"/>
<text x="372" y="96" font-family="monospace" font-size="14" fill="#7FB2E8">#include &lt;stdio.h&gt;</text><text x="372" y="120" font-family="monospace" font-size="14" fill="#C9A6F2">int main() {</text><text x="372" y="144" font-family="monospace" font-size="14" fill="#F2C56B">  printf("Hello");</text><text x="372" y="168" font-family="monospace" font-size="14" fill="#C9A6F2">  return 0;</text><text x="372" y="192" font-family="monospace" font-size="14" fill="#9FB3C8">}</text>
</g>
<rect x="0" y="180" width="640" height="180" fill="url(#fade)"/>
<!-- category pill -->
<g transform="translate(34,248)">
<rect x="0" y="0" rx="13" ry="13" width="112" height="26" fill="#3B82F6" fill-opacity="0.18" stroke="#3B82F6" stroke-opacity="0.5"/>
<text x="13" y="18" font-family="Inter, Arial, sans-serif" font-size="13" font-weight="600" fill="#3B82F6">Programming</text>
</g>
<text x="34" y="316" font-family="Poppins, Arial, sans-serif" font-size="42" font-weight="800" fill="#FFFFFF">C Programming</text>
<text x="34" y="342" font-family="Inter, Arial, sans-serif" font-size="13" fill="#9FB3C8">Foundation Program · Loop &amp; Logic</text>
</svg>