<svg xmlns="http://www.w3.org/2000/svg" width="640" height="360" viewBox="0 0 640 360" role="img" aria-label="Electronic Devices &amp; Circuits">
<defs>
<linearGradient id="bg" x1="0" y1="0" x2="1" y2="1"><stop offset="0" stop-color="#0B1626"/><stop offset="1" stop-color="#13233B"/></linearGradient>
<radialGradient id="gA" cx="50%" cy="50%" r="50%"><stop offset="0" stop-color="#F97316" stop-opacity="0.55"/><stop offset="1" stop-color="#F97316" stop-opacity="0"/></radialGradient>
<radialGradient id="gB" cx="50%" cy="50%" r="50%"><stop offset="0" stop-color="#EF4444" stop-opacity="0.5"/><stop offset="1" stop-color="#EF4444" stop-opacity="0"/></radialGradient>
<linearGradient id="acc" x1="0" y1="0" x2="1" y2="0"><stop offset="0" stop-color="#F97316"/><stop offset="1" stop-color="#EF4444"/></linearGradient>
<pattern id="grid" width="34" height="34" patternUnits="userSpaceOnUse"><path d="M34 0H0V34" fill="none" stroke="#ffffff" stroke-opacity="0.05" stroke-width="1"/></pattern>
<linearGradient id="fade" x1="0" y1="0" x2="0" y2="1"><stop offset="0" stop-color="#0B1626" stop-opacity="0"/><stop offset="1" stop-color="#0B1626" stop-opacity="0.85"/></linearGradient>
</defs>
<rect width="640" height="360" fill="url(#bg)"/>
<rect width="640" height="360" fill="url(#grid)"/>
<circle cx="500" cy="70" r="240" fill="url(#gA)"/>
<circle cx="120" cy="330" r="220" fill="url(#gB)"/>
<!-- accent corner bar -->
<rect x="0" y="0" width="640" height="5" fill="url(#acc)"/>
<g fill="none" stroke="#F97316" stroke-width="2.6" stroke-linecap="round" stroke-linejoin="round" stroke-opacity="0.85">
<path d="M360 90 H410 L420 76 L436 104 L452 76 L468 104 L478 90 H520"/>
<path d="M520 90 V140 H470"/>
<path d="M360 140 H410"/>
<circle cx="360" cy="90" r="5" fill="#F97316"/><circle cx="520" cy="90" r="5" fill="#F97316"/>
<rect x="430" y="128" width="40" height="24" rx="4" stroke="#FB7185"/>
<path d="M450 152 V176 M438 176 H462 M442 184 H458 M446 192 H454" stroke="#FB7185"/>
<circle cx="360" cy="140" r="5" fill="#F97316"/>
<path d="M540 140 H580 M560 120 V160" stroke="#FBBF24"/></g>
<rect x="0" y="180" width="640" height="180" fill="url(#fade)"/>
<!-- brand -->
<g transform="translate(26,20) scale(0.62)"><g fill="none" stroke-linecap="round" stroke-linejoin="round">
    <path d="M30 31 C 22 16, 6 18, 6 31 C 6 44, 22 46, 30 31" stroke="#19B5C9" stroke-width="6"/>
    <path d="M28 31 C 36 16, 52 18, 52 31 C 52 44, 36 46, 28 31" stroke="#F5821F" stroke-width="6"/>
    <path d="M23 25 L20 12" stroke="#19B5C9" stroke-width="2.6"/><path d="M29 23 L29 7" stroke="#19B5C9" stroke-width="2.6"/>
    <path d="M35 25 L38 12" stroke="#F5821F" stroke-width="2.6"/></g>
    <circle cx="20" cy="10" r="3.2" fill="#19B5C9"/><circle cx="29" cy="5.5" r="3.2" fill="#19B5C9"/><circle cx="38" cy="10" r="3.2" fill="#F5821F"/></g>
<text x="74" y="46" font-family="Inter, Arial, sans-serif" font-size="13" font-weight="700" letter-spacing="2" fill="#9FB3C8">LOOP &amp; LOGIC</text>
<!-- category pill -->
<g transform="translate(34,248)">
<rect x="0" y="0" rx="13" ry="13" width="112" height="26" fill="#F97316" fill-opacity="0.18" stroke="#F97316" stroke-opacity="0.5"/>
<text x="13" y="18" font-family="Inter, Arial, sans-serif" font-size="13" font-weight="600" fill="#F97316">Electronics</text>
</g>
<text x="34" y="316" font-family="Poppins, Arial, sans-serif" font-size="27" font-weight="800" fill="#FFFFFF">Electronic Devices &amp; Circuits</text>
<text x="34" y="342" font-family="Inter, Arial, sans-serif" font-size="13" fill="#9FB3C8">Foundation Program · Loop &amp; Logic</text>
</svg>