<svg xmlns="http://www.w3.org/2000/svg" width="1200" height="630" viewBox="0 0 1200 630">
<defs><linearGradient id="bg" x1="0" y1="0" x2="1" y2="1"><stop offset="0" stop-color="#0F172A"/><stop offset="1" stop-color="#102233"/></linearGradient>
<linearGradient id="t" x1="0" y1="0" x2="1" y2="0"><stop offset="0" stop-color="#19B5C9"/><stop offset="1" stop-color="#F5821F"/></linearGradient></defs>
<rect width="1200" height="630" fill="url(#bg)"/>
<circle cx="1050" cy="120" r="220" fill="#19B5C9" opacity="0.16"/><circle cx="160" cy="540" r="180" fill="#F5821F" opacity="0.16"/>
<g transform="translate(80,70) scale(1.6)">
  <g fill="none" stroke-linecap="round" stroke-linejoin="round">
    <path d="M30 31 C 22 16, 6 18, 6 31 C 6 44, 22 46, 30 31" stroke="#19B5C9" stroke-width="6"/>
    <path d="M28 31 C 36 16, 52 18, 52 31 C 52 44, 36 46, 28 31" stroke="#F5821F" stroke-width="6"/>
    <path d="M23 25 L20 12" stroke="#19B5C9" stroke-width="2.6"/>
    <path d="M29 23 L29 7" stroke="#19B5C9" stroke-width="2.6"/>
    <path d="M35 25 L38 12" stroke="#F5821F" stroke-width="2.6"/>
  </g>
  <circle cx="20" cy="10" r="3.2" fill="#19B5C9"/>
  <circle cx="29" cy="5.5" r="3.2" fill="#19B5C9"/>
  <circle cx="38" cy="10" r="3.2" fill="#F5821F"/></g>
<text x="80" y="280" font-family="Poppins, Arial" font-size="70" font-weight="800" fill="#fff">Master Programming,</text>
<text x="80" y="360" font-family="Poppins, Arial" font-size="70" font-weight="800" fill="url(#t)">AI &amp; Problem Solving</text>
<text x="80" y="425" font-family="Inter, Arial" font-size="29" fill="#CBD5E1">Foundation courses · Real projects · Expert mentors</text>
<g font-family="Poppins, Arial" font-weight="700">
<text x="80" y="535" font-size="42" fill="#fff">4,500+</text><text x="80" y="568" font-size="19" fill="#94A3B8">Subscribers</text>
<text x="320" y="535" font-size="42" fill="#fff">1,000+</text><text x="320" y="568" font-size="19" fill="#94A3B8">Students</text>
<text x="560" y="535" font-size="42" fill="#fff">16+</text><text x="560" y="568" font-size="19" fill="#94A3B8">Courses</text>
</g></svg>