<svg xmlns="http://www.w3.org/2000/svg" width="1100" height="420" viewBox="0 0 1100 420" role="img" aria-label="Loop and Logic banner">
<defs>
<linearGradient id="bg" x1="0" y1="0" x2="1" y2="1"><stop offset="0" stop-color="#0B1626"/><stop offset="1" stop-color="#13233B"/></linearGradient>
<radialGradient id="gA" cx="50%" cy="50%" r="50%"><stop offset="0" stop-color="#3B82F6" stop-opacity="0.55"/><stop offset="1" stop-color="#3B82F6" stop-opacity="0"/></radialGradient>
<radialGradient id="gB" cx="50%" cy="50%" r="50%"><stop offset="0" stop-color="#7C3AED" stop-opacity="0.5"/><stop offset="1" stop-color="#7C3AED" stop-opacity="0"/></radialGradient>
<pattern id="grid" width="40" height="40" patternUnits="userSpaceOnUse"><path d="M40 0H0V40" fill="none" stroke="#ffffff" stroke-opacity="0.045" stroke-width="1"/></pattern>
<linearGradient id="acc" x1="0" y1="0" x2="1" y2="0"><stop offset="0" stop-color="#3B82F6"/><stop offset="1" stop-color="#7C3AED"/></linearGradient>
</defs>
<rect width="1100" height="420" fill="url(#bg)"/>
<rect width="1100" height="420" fill="url(#grid)"/>
<circle cx="900" cy="70" r="320" fill="url(#gA)"/>
<circle cx="1050" cy="400" r="240" fill="url(#gB)"/>
<rect x="0" y="0" width="1100" height="6" fill="url(#acc)"/>
<g transform="translate(690,110)">
<rect x="0" y="0" width="320" height="200" rx="16" fill="#0E1C30" stroke="#ffffff" stroke-opacity="0.10"/>
<rect x="0" y="0" width="320" height="34" rx="16" fill="#16273F"/><rect x="0" y="18" width="320" height="16" fill="#16273F"/>
<circle cx="22" cy="17" r="5" fill="#ff5f56"/><circle cx="40" cy="17" r="5" fill="#ffbd2e"/><circle cx="58" cy="17" r="5" fill="#27c93f"/>
<g font-family="monospace" font-size="16">
<text x="22" y="74" fill="#7FB2E8">def</text><text x="62" y="74" fill="#60A5FA">grow():</text>
<text x="40" y="104" fill="#C9A6F2">learn</text><text x="100" y="104" fill="#9FB3C8">()</text>
<text x="40" y="134" fill="#C9A6F2">build</text><text x="100" y="134" fill="#9FB3C8">(projects)</text>
<text x="40" y="164" fill="#7FB2E8">return</text><text x="115" y="164" fill="#F2C56B">"career"</text>
</g></g>
<path d="M640 300 L690 250 L740 280 L800 210 L860 240 L930 160" fill="none" stroke="#34D399" stroke-width="3" stroke-linecap="round" stroke-linejoin="round" opacity="0.85"/>
<circle cx="930" cy="160" r="5" fill="#34D399"/>
<g transform="translate(46,40) scale(0.95)"><g fill="none" stroke-linecap="round" stroke-linejoin="round">
    <path d="M30 31 C 22 16, 6 18, 6 31 C 6 44, 22 46, 30 31" stroke="#19B5C9" stroke-width="6"/>
    <path d="M28 31 C 36 16, 52 18, 52 31 C 52 44, 36 46, 28 31" stroke="#F5821F" stroke-width="6"/>
    <path d="M23 25 L20 12" stroke="#19B5C9" stroke-width="2.6"/><path d="M29 23 L29 7" stroke="#19B5C9" stroke-width="2.6"/>
    <path d="M35 25 L38 12" stroke="#F5821F" stroke-width="2.6"/></g>
    <circle cx="20" cy="10" r="3.2" fill="#19B5C9"/><circle cx="29" cy="5.5" r="3.2" fill="#19B5C9"/><circle cx="38" cy="10" r="3.2" fill="#F5821F"/></g>
<text x="116" y="74" font-family="Inter, Arial, sans-serif" font-size="22" font-weight="800" letter-spacing="2" fill="#fff">Loop &amp; Logic</text>
<text x="116" y="98" font-family="Inter, Arial, sans-serif" font-size="14" font-weight="600" letter-spacing="2" fill="#3B82F6">FOUNDATION PROGRAM</text>
</svg>