<svg xmlns="http://www.w3.org/2000/svg" width="1100" height="420" viewBox="0 0 1100 420" role="img" aria-label="Loop and Logic banner">
<defs>
<linearGradient id="bg" x1="0" y1="0" x2="1" y2="1"><stop offset="0" stop-color="#0B1626"/><stop offset="1" stop-color="#13233B"/></linearGradient>
<radialGradient id="gA" cx="50%" cy="50%" r="50%"><stop offset="0" stop-color="#F59E0B" stop-opacity="0.55"/><stop offset="1" stop-color="#F59E0B" stop-opacity="0"/></radialGradient>
<radialGradient id="gB" cx="50%" cy="50%" r="50%"><stop offset="0" stop-color="#7C3AED" stop-opacity="0.5"/><stop offset="1" stop-color="#7C3AED" stop-opacity="0"/></radialGradient>
<pattern id="grid" width="40" height="40" patternUnits="userSpaceOnUse"><path d="M40 0H0V40" fill="none" stroke="#ffffff" stroke-opacity="0.045" stroke-width="1"/></pattern>
<linearGradient id="acc" x1="0" y1="0" x2="1" y2="0"><stop offset="0" stop-color="#F59E0B"/><stop offset="1" stop-color="#7C3AED"/></linearGradient>
</defs>
<rect width="1100" height="420" fill="url(#bg)"/>
<rect width="1100" height="420" fill="url(#grid)"/>
<circle cx="900" cy="70" r="320" fill="url(#gA)"/>
<circle cx="1050" cy="400" r="240" fill="url(#gB)"/>
<rect x="0" y="0" width="1100" height="6" fill="url(#acc)"/>
<g transform="translate(770,130)">
<path d="M20 20 h70 v22 a16 16 0 0 1 32 0 v-22 h70 v70 h22 a16 16 0 0 1 0 32 h-22 v70 h-70 v-22 a16 16 0 0 0-32 0 v22 h-70 z"
 fill="#7C3AED" fill-opacity="0.22" stroke="#A855F7" stroke-width="2.6" stroke-linejoin="round"/></g>
<g transform="translate(940,150)" fill="none" stroke="#F59E0B" stroke-width="3.2" stroke-linecap="round" stroke-linejoin="round">
<circle cx="40" cy="40" r="34" fill="#F59E0B" fill-opacity="0.15"/>
<path d="M40 14 a26 26 0 0 1 16 46 v12 h-32 v-12 a26 26 0 0 1 16 -46z"/>
<path d="M28 84 h24 M32 96 h16"/></g>
<g transform="translate(46,40) scale(0.95)"><g fill="none" stroke-linecap="round" stroke-linejoin="round">
    <path d="M30 31 C 22 16, 6 18, 6 31 C 6 44, 22 46, 30 31" stroke="#19B5C9" stroke-width="6"/>
    <path d="M28 31 C 36 16, 52 18, 52 31 C 52 44, 36 46, 28 31" stroke="#F5821F" stroke-width="6"/>
    <path d="M23 25 L20 12" stroke="#19B5C9" stroke-width="2.6"/><path d="M29 23 L29 7" stroke="#19B5C9" stroke-width="2.6"/>
    <path d="M35 25 L38 12" stroke="#F5821F" stroke-width="2.6"/></g>
    <circle cx="20" cy="10" r="3.2" fill="#19B5C9"/><circle cx="29" cy="5.5" r="3.2" fill="#19B5C9"/><circle cx="38" cy="10" r="3.2" fill="#F5821F"/></g>
<text x="116" y="74" font-family="Inter, Arial, sans-serif" font-size="22" font-weight="800" letter-spacing="2" fill="#fff">Loop &amp; Logic</text>
<text x="116" y="98" font-family="Inter, Arial, sans-serif" font-size="14" font-weight="600" letter-spacing="2" fill="#F59E0B">LEARN · BUILD · GROW</text>
</svg>