<svg xmlns="http://www.w3.org/2000/svg" width="1100" height="420" viewBox="0 0 1100 420" role="img" aria-label="Loop and Logic banner">
<defs>
<linearGradient id="bg" x1="0" y1="0" x2="1" y2="1"><stop offset="0" stop-color="#0B1626"/><stop offset="1" stop-color="#13233B"/></linearGradient>
<radialGradient id="gA" cx="50%" cy="50%" r="50%"><stop offset="0" stop-color="#19B5C9" stop-opacity="0.55"/><stop offset="1" stop-color="#19B5C9" stop-opacity="0"/></radialGradient>
<radialGradient id="gB" cx="50%" cy="50%" r="50%"><stop offset="0" stop-color="#F5821F" stop-opacity="0.5"/><stop offset="1" stop-color="#F5821F" stop-opacity="0"/></radialGradient>
<pattern id="grid" width="40" height="40" patternUnits="userSpaceOnUse"><path d="M40 0H0V40" fill="none" stroke="#ffffff" stroke-opacity="0.045" stroke-width="1"/></pattern>
<linearGradient id="acc" x1="0" y1="0" x2="1" y2="0"><stop offset="0" stop-color="#19B5C9"/><stop offset="1" stop-color="#F5821F"/></linearGradient>
</defs>
<rect width="1100" height="420" fill="url(#bg)"/>
<rect width="1100" height="420" fill="url(#grid)"/>
<circle cx="900" cy="70" r="320" fill="url(#gA)"/>
<circle cx="1050" cy="400" r="240" fill="url(#gB)"/>
<rect x="0" y="0" width="1100" height="6" fill="url(#acc)"/>
<g transform="translate(820,120)" fill="none" stroke="#19B5C9" stroke-width="3.4" stroke-linecap="round" stroke-linejoin="round">
<path d="M40 30 a40 40 0 0 1 40 40 v34 l16 22 h-112 l16 -22 v-34 a40 40 0 0 1 40 -40z" fill="#0E1C30"/>
<path d="M52 150 a16 16 0 0 0 30 0" />
<circle cx="60" cy="22" r="6" fill="#F5821F" stroke="none"/></g>
<g fill="#F5821F"><circle cx="720" cy="170" r="6"/><circle cx="1010" cy="150" r="6"/><circle cx="760" cy="300" r="6"/><circle cx="1000" cy="300" r="6"/></g>
<g stroke="#19B5C9" stroke-opacity="0.4" stroke-width="2"><line x1="720" y1="170" x2="860" y2="200"/><line x1="1010" y1="150" x2="900" y2="200"/><line x1="760" y1="300" x2="860" y2="240"/><line x1="1000" y1="300" x2="910" y2="240"/></g>
<g transform="translate(46,40) scale(0.95)"><g fill="none" stroke-linecap="round" stroke-linejoin="round">
    <path d="M30 31 C 22 16, 6 18, 6 31 C 6 44, 22 46, 30 31" stroke="#19B5C9" stroke-width="6"/>
    <path d="M28 31 C 36 16, 52 18, 52 31 C 52 44, 36 46, 28 31" stroke="#F5821F" stroke-width="6"/>
    <path d="M23 25 L20 12" stroke="#19B5C9" stroke-width="2.6"/><path d="M29 23 L29 7" stroke="#19B5C9" stroke-width="2.6"/>
    <path d="M35 25 L38 12" stroke="#F5821F" stroke-width="2.6"/></g>
    <circle cx="20" cy="10" r="3.2" fill="#19B5C9"/><circle cx="29" cy="5.5" r="3.2" fill="#19B5C9"/><circle cx="38" cy="10" r="3.2" fill="#F5821F"/></g>
<text x="116" y="74" font-family="Inter, Arial, sans-serif" font-size="22" font-weight="800" letter-spacing="2" fill="#fff">Loop &amp; Logic</text>
<text x="116" y="98" font-family="Inter, Arial, sans-serif" font-size="14" font-weight="600" letter-spacing="2" fill="#19B5C9">JOIN THE COMMUNITY</text>
</svg>